<svg id="Layer_1" data-name="Layer 1" xmlns="http://www.w3.org/2000/svg" viewBox="0 0 208.31 246.33"><defs><style>.cls-1{fill:none;stroke:#fff;stroke-miterlimit:10;stroke-width:10px;}.cls-2{font-size:32px;fill:#fff;font-family:Montserrat-ExtraBold, Montserrat;font-weight:800;}.cls-3{letter-spacing:0em;}.cls-4{letter-spacing:-0.01em;}</style></defs><path class="cls-1" d="M137.21,56.15h0a0,0,0,0,1,0,0V186a0,0,0,0,1,0,0H71.1a0,0,0,0,1,0,0V122.26A66.1,66.1,0,0,1,137.21,56.15Z"/><path class="cls-1" d="M203.31,5h0a0,0,0,0,1,0,0V186a0,0,0,0,1,0,0h-66.1a0,0,0,0,1,0,0V71.1A66.1,66.1,0,0,1,203.31,5Z"/><path class="cls-1" d="M71.1,101.8h0a0,0,0,0,1,0,0V186a0,0,0,0,1,0,0H5a0,0,0,0,1,0,0V167.9a66.1,66.1,0,0,1,66.1-66.1Z"/><text class="cls-2" transform="translate(15.42 237.76)">MX <tspan class="cls-3" x="63.42" y="0">P</tspan><tspan class="cls-4" x="86.85" y="0">r</tspan><tspan x="100.8" y="0">ofits</tspan></text></svg>