<svg id="Layer_1" data-name="Layer 1" xmlns="http://www.w3.org/2000/svg" viewBox="0 0 553.85 190.6"><defs><style>.cls-1{fill:none;stroke:#000;stroke-miterlimit:10;stroke-width:10px;}.cls-2{font-size:32px;font-family:Montserrat-ExtraBold, Montserrat;font-weight:800;}.cls-3{letter-spacing:0em;}.cls-4{letter-spacing:-0.01em;}.cls-5{fill:#0ad4a1;}</style></defs><path class="cls-1" d="M336.09,27h0a0,0,0,0,1,0,0V135.12a0,0,0,0,1,0,0H281a0,0,0,0,1,0,0V82A55,55,0,0,1,336.09,27Z"/><path class="cls-1" d="M53,51.13h55a0,0,0,0,1,0,0V159.25a0,0,0,0,1,0,0h0a55,55,0,0,1-55-55V51.13A0,0,0,0,1,53,51.13Z" transform="translate(355.05 164.25) rotate(-180)"/><path class="cls-1" d="M60,62h0a0,0,0,0,1,0,0v70.11a0,0,0,0,1,0,0H5a0,0,0,0,1,0,0V117A55,55,0,0,1,60,62Z"/><text class="cls-2" transform="translate(211.83 182.02)">MX <tspan class="cls-3" x="63.42" y="0">P</tspan><tspan class="cls-4" x="86.85" y="0">r</tspan><tspan x="100.8" y="0">ofits</tspan></text><path class="cls-5" d="M343.78,135.29H325.64a3.11,3.11,0,0,1-3.11-3.45l3.41-32.1a3.12,3.12,0,0,1,3.11-2.8h14.73a3.14,3.14,0,0,1,3.13,3.13v32.1A3.13,3.13,0,0,1,343.78,135.29Zm-14.73-36a.74.74,0,0,0-.73.66l-3.42,32.1a.74.74,0,0,0,.19.57.73.73,0,0,0,.55.24h18.14a.74.74,0,0,0,.74-.73v-32.1a.74.74,0,0,0-.74-.74Z" transform="translate(194.08 -46.13)"/><path class="cls-5" d="M356.64,129.38H338.56a3.22,3.22,0,0,1-3.12-3.3V100.25a3.22,3.22,0,0,1,3.12-3.31h14.78a3.2,3.2,0,0,1,3.1,2.86l3.3,25.84a3.43,3.43,0,0,1-.74,2.61A3.06,3.06,0,0,1,356.64,129.38ZM338.56,99.47a.76.76,0,0,0-.73.78v25.83a.76.76,0,0,0,.73.78h18.08a.72.72,0,0,0,.56-.27.81.81,0,0,0,.17-.62l-3.3-25.83a.75.75,0,0,0-.73-.67Z" transform="translate(194.08 -46.13)"/></svg>